# xmcd CD database file
#
# Track frame offsets:
#	150
#	12147
#	35358
#	48557
#	73576
#	85954
#	106965
#	124680
#	144130
#	167888
#
# Disc length: 2651 seconds
#
# Revision: 0
# Processed by: cddbd v1.5.1PL0 Copyright (c) Steve Scherf et al.
# Submitted via: CDex 1.51
#
DISCID=7d0a590a
DTITLE=Dirk Schlag - Firefly
DYEAR=2002
DGENRE=Country
TTITLE0=Fired Up
TTITLE1=Reflections
TTITLE2=Fast On Your Feet
TTITLE3=Song For You
TTITLE4=Rollin' The Dice
TTITLE5=Light And Breezy
TTITLE6=Cruisin' Down The Boulevard
TTITLE7=Firefly
TTITLE8=Feelin' It
TTITLE9=Still Thinkin' 'bout You
EXTD=YEAR: 2002
EXTT0=
EXTT1=
EXTT2=
EXTT3=
EXTT4=
EXTT5=
EXTT6=
EXTT7=
EXTT8=
EXTT9=
PLAYORDER=
